# xmcd
#
# Track frame offsets:
#	150
#	12884
#	26490
#	42731
#	58005
#	74952
#	85222
#	100199
#	113124
#	146327
#
# Disc length: 2249 seconds
#
# Revision: 1
# Processed by: cddbd v1.5.2PL0 Copyright (c) Steve Scherf et al.
# Submitted via: audiograbber 1.83.01
#
DISCID=8b08c70a
DTITLE=Anja Clasen Band - Live
DYEAR=2008
DGENRE=Blues
TTITLE0=Mary Jane
TTITLE1=You Can Love Yourself
TTITLE2=Come On Into My Kitchen
TTITLE3=Bourgeoise Blues
TTITLE4=You Give Me Nothing But The Blues
TTITLE5=The Letter
TTITLE6=How Can A Poor Man Stand Such Times And Live?
TTITLE7=I Was Born To Fight
TTITLE8=Moondance
TTITLE9=Take Me To The River
EXTD=
EXTT0=
EXTT1=
EXTT2=
EXTT3=
EXTT4=
EXTT5=
EXTT6=
EXTT7=
EXTT8=
EXTT9=
PLAYORDER=
